<svg aria-hidden="true" style="width:0;height:0;position:absolute;overflow:hidden" xmlns="http://www.w3.org/2000/svg"><defs><symbol id="icon-instagram" viewBox="0 0 32 32"><path d="M16.316 32h-.319c-2.508.006-4.826-.058-7.08-.195-2.066-.126-3.953-.84-5.455-2.065-1.45-1.182-2.44-2.781-2.942-4.75-.438-1.715-.461-3.398-.483-5.026a343.853 343.853 0 0 1-.036-3.96c.003-1.414.02-2.798.036-3.966.022-1.628.045-3.311.483-5.026.503-1.97 1.493-3.568 2.942-4.75C4.965 1.037 6.851.323 8.918.197 11.172.06 13.49-.004 16.004.002c2.509-.005 4.826.058 7.08.195 2.066.126 3.953.84 5.455 2.065 1.45 1.182 2.44 2.781 2.943 4.75.437 1.715.461 3.398.483 5.026.016 1.168.033 2.552.036 3.96v.006c-.003 1.408-.02 2.792-.036 3.96-.022 1.628-.045 3.311-.483 5.026-.503 1.97-1.493 3.568-2.943 4.75-1.502 1.225-3.389 1.939-5.455 2.065-2.159.131-4.376.195-6.768.195zm-.319-2.5c2.468.006 4.733-.056 6.934-.19 1.563-.095 2.917-.602 4.027-1.507 1.026-.837 1.732-1.991 2.1-3.431.364-1.428.385-2.96.406-4.442.016-1.16.032-2.535.036-3.929-.004-1.394-.02-2.769-.036-3.929-.02-1.482-.041-3.015-.406-4.443-.367-1.44-1.074-2.594-2.1-3.431-1.11-.905-2.465-1.412-4.027-1.507a108.807 108.807 0 0 0-6.928-.19c-2.467-.006-4.733.056-6.934.19-1.563.095-2.917.602-4.027 1.507-1.026.837-1.732 1.991-2.1 3.431-.364 1.428-.385 2.96-.406 4.443a363.726 363.726 0 0 0-.036 3.932c.003 1.389.02 2.765.036 3.926.02 1.482.041 3.015.406 4.442.367 1.44 1.074 2.594 2.1 3.431 1.11.905 2.465 1.412 4.027 1.507 2.201.134 4.467.197 6.928.191zm-.06-5.688c-4.308 0-7.813-3.505-7.813-7.812s3.505-7.813 7.813-7.813S23.75 11.692 23.75 16s-3.505 7.812-7.813 7.812zm0-13.125c-2.929 0-5.313 2.383-5.313 5.313s2.383 5.312 5.313 5.312c2.93 0 5.313-2.383 5.313-5.312s-2.383-5.313-5.313-5.313zm8.688-5a1.875 1.875 0 1 0 0 3.75 1.875 1.875 0 0 0 0-3.75z"/></symbol><symbol id="icon-phone" viewBox="0 0 30 32"><path d="M6.032 3.451A3.574 3.574 0 0 0 3.335 4.7c-.558.652-.873 1.483-.82 2.339.337 5.395 2.567 10.693 6.689 14.816s9.421 6.352 14.815 6.689c.856.053 1.687-.262 2.339-.82a3.574 3.574 0 0 0 1.249-2.697v-2.528a2.51 2.51 0 0 0-1.9-2.435l-3.893-.975a2.505 2.505 0 0 0-1.921.295l-2.896 1.775a1.19 1.19 0 0 1-1.361-.063c-1.007-.791-2.215-1.887-3.001-2.673s-1.882-1.994-2.673-3.001a1.19 1.19 0 0 1-.062-1.361l1.775-2.896a2.51 2.51 0 0 0 .295-1.921l-.975-3.893a2.51 2.51 0 0 0-2.435-1.9H6.032z"/><path d="M23.241 1.793c0 .471.382.852.852.852h3.116l-9.39 9.39a.852.852 0 0 0 1.205 1.205l9.39-9.39v3.116a.852.852 0 0 0 1.704 0V1.793a.852.852 0 0 0-.852-.852h-5.173a.851.851 0 0 0-.852.852z"/></symbol></defs></svg>